<?xml version="1.0" encoding="UTF-8"?>
<svg width="32px" height="32px" viewBox="0 0 32 32" version="1.1" xmlns="http://www.w3.org/2000/svg">
  <g stroke="none" stroke-width="1" fill="none" fill-rule="evenodd">
    <circle stroke="#A855F7" stroke-width="2" cx="16" cy="16" r="10"></circle>
    <path d="M12,13 C12,11.8954305 12.8954305,11 14,11 L18,11 C19.1045695,11 20,11.8954305 20,13 L20,19 C20,20.1045695 19.1045695,21 18,21 L14,21 C12.8954305,21 12,20.1045695 12,19 L12,13 Z" stroke="#A855F7" stroke-width="2"></path>
    <path d="M15,7 L17,7 L17,11 L15,11 L15,7 Z" fill="#A855F7"></path>
    <path d="M15,21 L17,21 L17,25 L15,25 L15,21 Z" fill="#A855F7"></path>
    <path d="M7,15 L11,15 L11,17 L7,17 L7,15 Z" fill="#A855F7"></path>
    <path d="M21,15 L25,15 L25,17 L21,17 L21,15 Z" fill="#A855F7"></path>
  </g>
</svg>